Coordinates
version=1
nRows=19
nColumns=24
inDegrees=yes

Units are S.I. units (second, meters, Newtons, ...)
Angles are in degrees.

endheader
time	pelvis_tilt	pelvis_list	pelvis_rotation	pelvis_tx	pelvis_ty	pelvis_tz	hip_flexion_r	hip_adduction_r	hip_rotation_r	knee_angle_r	ankle_angle_r	subtalar_angle_r	mtp_angle_r	hip_flexion_l	hip_adduction_l	hip_rotation_l	knee_angle_l	ankle_angle_l	subtalar_angle_l	mtp_angle_l	lumbar_extension	lumbar_bending	lumbar_rotation
      1.41633333	     -1.64191089	      8.83053437	     -4.02433158	      0.34327444	      1.00524811	      0.29546438	     21.10155129	    -11.16572565	      1.81819667	    -75.88412700	    -13.43277101	    -13.68286511	      5.13401293	      9.76641666	     14.30180428	      0.53469943	     -8.27183819	      0.38710242	    -16.60558685	     -3.39272715	    -11.06509267	     -5.08944055	      0.02321633
      1.42050000	     -1.64574718	      8.62988684	     -3.91996549	      0.34804492	      1.00620119	      0.29505760	     21.70763811	    -10.85616118	      1.78119171	    -75.71802877	    -12.99140921	    -13.83531353	      4.97318189	      9.22700771	     14.14147015	      0.68126833	     -7.87439386	      0.48581132	    -16.43678153	     -3.38456981	    -11.10120616	     -4.80142635	     -0.21015605
      1.42466667	     -1.65429904	      8.46087877	     -3.81558594	      0.35280105	      1.00707685	      0.29465540	     22.31627735	    -10.58330458	      1.74492936	    -75.51619262	    -12.49777160	    -14.02349215	      4.89414543	      8.70489120	     14.01076525	      0.79435054	     -7.48986315	      0.53297873	    -16.26477225	     -3.38026109	    -11.14399499	     -4.56282585	     -0.37526633
      1.42883333	     -1.62414100	      8.27478206	     -3.69315576	      0.35759143	      1.00800952	      0.29423612	     22.84748719	    -10.30359000	      1.67859289	    -75.23108245	    -12.07839419	    -14.16159955	      4.73526357	      8.12361561	     13.86506972	      0.93628525	     -7.08247617	      0.64860475	    -16.04994477	     -3.37326143	    -11.20370837	     -4.28664543	     -0.75607439
      1.43300000	     -1.61461434	      8.08494440	     -3.56369697	      0.36236619	      1.00887276	      0.29381752	     23.38513068	    -10.01708751	      1.60603738	    -74.89470776	    -11.62387653	    -14.31004412	      4.57627384	      7.57350768	     13.71099587	      1.06260344	     -6.69128410	      0.73696107	    -15.83636653	     -3.36841566	    -11.25150721	     -4.01263308	     -1.03253527
      1.43716667	     -1.60430472	      7.92086105	     -3.42986001	      0.36714517	      1.00966672	      0.29338045	     23.91400078	     -9.76944890	      1.52405002	    -74.51580825	    -11.14833852	    -14.46385719	      4.33723674	      7.02908944	     13.58265782	      1.16610034	     -6.30738921	      0.81994656	    -15.59773404	     -3.36423565	    -11.29757438	     -3.75031523	     -1.36457904
      1.44133333	     -1.58564478	      7.73727067	     -3.30016495	      0.37193080	      1.01045962	      0.29297235	     24.40894138	     -9.49453743	      1.44599877	    -74.06485682	    -10.68552258	    -14.54636034	      4.19027980	      6.46821194	     13.43060435	      1.29257992	     -5.91144189	      0.91765364	    -15.39542279	     -3.36191678	    -11.35344719	     -3.50534751	     -1.56926794
      1.44550000	     -1.55718255	      7.56384902	     -3.16263654	      0.37673063	      1.01121862	      0.29254517	     24.87544213	     -9.24093192	      1.35418649	    -73.56242605	    -10.20029559	    -14.64233368	      4.02636103	      5.89899177	     13.28808822	      1.40043732	     -5.51949480	      1.00997897	    -15.16227924	     -3.36136344	    -11.41365636	     -3.25267992	     -1.84428731
      1.44966667	     -1.56697264	      7.40410570	     -3.00937848	      0.38151124	      1.01186038	      0.29212878	     25.37303754	     -8.99888854	      1.25814951	    -73.02549378	     -9.63134678	    -14.71109706	      1.27891451	      5.39161091	     13.15290696	      1.48152635	     -5.16952695	      1.16684402	    -14.85044368	     -3.43918200	    -11.43673295	     -3.02893903	     -2.10781020
      1.45383333	     -1.54632136	      7.23789382	     -2.88055970	      0.38632834	      1.01251490	      0.29171684	     25.81828162	     -8.75258244	      1.17560737	    -72.41647509	     -9.13469339	    -14.73053329	      1.27081235	      4.82366981	     13.01238031	      1.59349818	     -4.75407216	      1.20740617	    -14.67655878	     -3.43830338	    -11.48689232	     -2.78699577	     -2.31275119
      1.45800000	     -1.51974028	      7.07676519	     -2.73636253	      0.39114984	      1.01312521	      0.29129361	     26.23625486	     -8.52175045	      1.07464712	    -71.75631822	     -8.60310198	    -14.75774288	      1.25397946	      4.25699413	     12.87542280	      1.70321877	     -4.35907793	      1.29708900	    -14.45936040	     -3.43761775	    -11.54231301	     -2.55238941	     -2.55778738
      1.46216667	     -1.51040927	      6.92851539	     -2.59273396	      0.39597841	      1.01367276	      0.29088635	     26.65915535	     -8.30485417	      0.97289217	    -71.04807438	     -8.04002491	    -14.82635098	      1.24663801	      3.71525481	     12.74672976	      1.79062075	     -3.97141887	      1.34647435	    -14.25608681	     -3.43729585	    -11.57576486	     -2.34166568	     -2.68765999
      1.46633333	     -1.44485069	      6.76258985	     -2.45212916	      0.40081821	      1.01426285	      0.29048993	     26.99190672	     -8.07306153	      0.87311761	    -70.26684518	     -7.50560139	    -14.74802242	      1.21501634	      3.10336290	     12.59814068	      1.89452694	     -3.56861878	      1.49003106	    -13.99335685	     -3.43879332	    -11.67357955	     -2.10459072	     -3.01930989
      1.47050000	     -1.45052089	      6.62367703	     -2.30230788	      0.40566092	      1.01467680	      0.29009144	     27.39483103	     -7.86791929	      0.77589178	    -69.45647591	     -6.91949901	    -14.78567591	      1.20003378	      2.58286240	     12.47241430	      1.97923297	     -3.18867885	      1.54980848	    -13.78581101	     -3.44031006	    -11.69077035	     -1.90549332	     -3.15505492
      1.47466667	     -1.39844197	      6.47651142	     -2.15751242	      0.41050786	      1.01513821	      0.28972506	     27.70884301	     -7.65784271	      0.67811825	    -68.57893151	     -6.34771694	    -14.69705222	      1.17318779	      1.99800835	     12.33543782	      2.07026129	     -2.80621401	      1.66261795	    -13.55503066	     -3.44351006	    -11.76322466	     -1.71791827	     -3.39556605
      1.47883333	     -1.33312312	      6.36096990	     -2.02595666	      0.41537890	      1.01554681	      0.28934623	     28.00374763	     -7.48516172	      0.59896457	    -67.66704724	     -5.80121351	    -14.60938045	      1.12540705	      1.38783029	     12.23202207	      2.15779342	     -2.39413953	      1.79266161	    -13.29903076	     -3.45163724	    -11.85324781	     -1.52290159	     -3.67667856
      1.48300000	     -1.33699255	      6.22956404	     -1.87561068	      0.42024713	      1.01581809	      0.28899609	     28.34433936	     -7.28726461	      0.51257095	    -66.69503695	     -5.22750574	    -14.57450735	      1.09678684	      0.87212897	     12.10306379	      2.24267173	     -2.02616831	      1.87315159	    -13.09810495	     -3.45762629	    -11.86192574	     -1.35421230	     -3.82104933
      1.48716667	     -1.24721335	      6.12249558	     -1.74686069	      0.42513332	      1.01615115	      0.28864800	     28.57347607	     -7.12450443	      0.44111096	    -65.68167652	     -4.68748086	    -14.45748638	      1.03812287	      0.23653321	     12.00190101	      2.33636563	     -1.61332746	      2.00152098	    -12.85313578	     -3.47103750	    -11.97986927	     -1.18141454	     -4.08484358
      1.49133333	     -1.21606394	      6.01195938	     -1.60890654	      0.43003005	      1.01636134	      0.28831736	     28.84269009	     -6.95310528	      0.37160873	    -64.61359719	     -4.16048007	    -14.36911422	      0.98255091	     -0.32508550	     11.89057664	      2.42624811	     -1.22399069	      2.10986497	    -12.64162037	     -3.48593950	    -12.02509757	     -1.02022434	     -4.27293476
